<?xml version="1.0" encoding="utf-8"?>
<!-- Generator: Adobe Illustrator 21.1.0, SVG Export Plug-In . SVG Version: 6.00 Build 0)  -->
<svg version="1.1" xmlns="http://www.w3.org/2000/svg" xmlns:xlink="http://www.w3.org/1999/xlink" x="0px" y="0px"
	 viewBox="0 0 518 404" style="enable-background:new 0 0 518 404;" xml:space="preserve">
<style type="text/css">
	.st0{fill:#FFFFFF;}
	.st1{fill:#F97DE2;}
	.st2{fill:#422744;}
</style>
<g id="Layer_1">
	<g>
		<g>
			<g>
				<path class="st0" d="M87.5,252.9c0,0-32.1,3.6-49.9-16c-17.8-19.6-14.3-49.9,3.6-64.2c17.8-14.3,69.5-26.7,76.7-26.7
					c7.1,0,130.2-39.2,153.4-53.5c23.2-14.3,89.2-55.3,124.8-53.5c35.7,1.8,85.6,12.5,74.9,35.7c-10.7,23.2-26.7,28.5-26.7,28.5
					s3.6,12.5-3.6,21.4c-7.1,8.9-45.3,20.5-45.3,20.5s-4.7,22.3-20.7,29.4c-16,7.1-90.9,14.3-96.3,14.3
					C273,188.7,87.5,252.9,87.5,252.9z"/>
			</g>
			<g>
				<g>
					<g>
						<path class="st1" d="M65.2,263.8c0,0-6.1-8.2,7.9-9.4c14.1-1.2,42.2-17.9,44.8-31c2.6-13.2,3.5-20.2-2.6-37.8
							c-6.1-17.6-30.7-29.9-38.7-29.9c-7.9,0-27.2,6.2-23.7-8.8c3.5-14.9,26.4-46.6,24.6-55.3c-1.8-8.8,4.4-31.6,14.1-38.7
							c9.7-7,44.8-16.7,47.4-14.1c2.6,2.6,5.5,9.7,4.5,15c-1,5.3,0.8,19.3,13.9,19.3c13.2,0,23.7,10.5,24.6-1.8
							c0.9-12.3,19.3-19.3,36-22.8c16.7-3.5,35.1-8.8,36.9-0.9c1.8,7.9-0.9,21.1,0.9,28.1c1.8,7-9.7,29.9,1.8,34.3l16.7,8.8
							c0,0,7.9,5.3,5.3,14.9c-2.6,9.7-7.7,32.9-7,36c0.7,3.2,9.7,18.4,30.7,14.9c28.7-4.8,42.2-3.5,47.4,12.3
							c5.3,15.8,6.1,31,7,42.8c0.9,11.7,16.7,15.2,27.2,25.8c10.5,10.5,25.5,17.6,17.6,32.5c-7.9,14.9-16.1,23.7-27.2,25.5
							c-11.1,1.8-0.9,5.3-8.8,21.1c-7.9,15.8-22,14.9-37.8,14.1c-15.8-0.9-35.1-18.4-53.6-14.1c-18.4,4.4-28.1,5.3-48.3,3.5
							c-20.2-1.8-41.3-5.3-58-12.3c-16.7-7-7-11.4-29-2.6c-22,8.8-47,3.7-59.7-3.5c-28.1-15.8-8.8-36.9-9.7-52.7
							C69.6,261.1,65.2,263.8,65.2,263.8z"/>
					</g>
				</g>
				<g>
					<g>
						<path class="st0" d="M71.3,151.9c0,0,17.6-70.9,104.2-59.2L192,98c0,0-2.9-41,53.3-38.7l11.1-14.1c0,0-19.9-1.8-24.6-1.2
							c-4.7,0.6-22.3,2.9-26.9,6.4c-4.7,3.5-22.3,24-22.3,24s-12.3,3.5-14.6,2.9c-2.3-0.6-35.1-0.6-38.7,0.6
							c-3.5,1.2-14.1,4.7-19.3,7c-5.3,2.3-15.8,5.3-15.8,5.3s-0.6-32.8,44.5-43.9c0,0-0.6-4.7-10-2.3c-9.4,2.3-31.6,5.9-39.2,18.7
							c-7.6,12.9-9.4,17.6-8.2,25.8c1.2,8.2-3.5,14.1-8.8,25.2c-5.3,11.1-15.2,27.5-15.2,29.3C57.3,144.9,56.7,163,71.3,151.9z"/>
					</g>
				</g>
				<g>
					<g>
						<path class="st0" d="M118.8,290.1l-39.2-32.2c0,0-15.8,0-12.3,5.9C70.7,269.6,112.3,291.3,118.8,290.1z"/>
					</g>
				</g>
				<g>
					<g>
						<path class="st0" d="M78.4,285.4c0,0-8.8,44.5,68.5,36.9c0,0-5.9,12.9-14.6,13.5c-8.8,0.6-33.4,1.8-39.8-1.2
							c-6.4-2.9-25.8-12.3-25.8-17.6C66.6,311.8,57.9,279,78.4,285.4z"/>
					</g>
				</g>
				<g>
					<g>
						<path class="st0" d="M261.1,254.4c0,0-43.9-16.1-53.9,5c-10,21.1,29.3,30.7,29.3,30.7s-22.3,2.3-27.5,0.6
							c-5.3-1.8-26.9-8.8-24-24.6c2.9-15.8,8.8-25.2,19.9-29.9c11.1-4.7,38.1-2.9,43.3,1.8C253.5,242.7,261.1,254.4,261.1,254.4z"/>
					</g>
				</g>
			</g>
		</g>
		<g>
			<circle class="st1" cx="74.2" cy="205.7" r="40.2"/>
			<path class="st2" d="M385.7,214.3c0.1-0.3,0.2-0.6,0.3-0.8c0.2-0.5,2.9-4.9,2.9-4.8c1,1.8,1.6,3.9,1.5,6.3c-0.1,1.9-0.7,3-2,3.6
				c-1.1,0.5-2.3,0.3-2.8-0.2C384.6,217.4,385.1,215.6,385.7,214.3z M356.4,340.3c-4.7,5.9-21,12.2-51,0.9
				c8.7-5.7,14.7-11.7,18.5-16.1c7.2,2.8,19.3,6.7,33.3,8.3c0.3,0,0.6,0.1,0.9,0.1C358.7,335.7,358.1,338.1,356.4,340.3z
				 M367.1,216.7c-0.5-3.9-1.2-7.4-2-10.7c2.2-2.8,9.8-3.6,12.1-3.8c-1.8,2.5-4.2,4.5-5.4,7.4c-1.4,3.5-1.5,7.5-0.2,11.1
				c2.2,6.5,8.7,11.3,15.6,11.3c2.2,0,4.4-0.4,6.5-1.3c6.1-2.6,9.9-8.3,10.1-15.4c0.1-2.4-0.2-4.7-0.7-6.9c1.2,0.9,2.4,1.9,3.3,3.1
				c1.7,2.2,3.3,5.8,1.2,10.2c-1.6,3.3-0.1,7.3,3.2,8.8c3.3,1.6,7.3,0.1,8.8-3.2c3.7-7.9,2.8-16.6-2.6-23.8
				c-5.9-7.9-16-12.1-25.1-10.7c-2.4-1.5-6.8-2.6-9.8-3.3c-6.7-1.6-16.2-0.4-21.4,2.9c-0.6-1.4-1.2-2.7-1.9-3.9
				c18.7-5.1,32.5-15,38.1-24.6c1.2-2,1.9-4,2.3-5.8c17.6-2.9,32.4-9.9,42.1-19.5c8.5-8.3,12.4-18.1,11.2-27.4
				c9.3-2.7,16.5-6.5,20.7-10.9c9.7-10.2,11.4-23.7,4.4-36.2c-13.1-23.4-55.3-41-111.7-30.7c-24.5-22.6-52.4-24.6-73.7-9.9
				C277,34.1,268.6,51.2,263.9,67c-0.3-1-0.6-2-0.9-3c-0.8-2.3,0.2-5.1,1.6-8.7c1.5-3.9,3.6-9.3,0.4-14.6c-1.4-2.3-4.2-5.2-9.8-5.8
				c-46.9-5.5-67.1,13.2-74.9,24.9c-1.9,2.8-3.4,5.7-4.6,8.7c-7.1-1-13.9-1.5-20.3-1.6c0.5-5.8-0.7-11.7-3.1-16.6
				c0.1-0.6,0.3-1.7,0.5-2.4c0.8-3.2,2.4-9.1-1.8-14.3c-4.3-5.2-11.2-5.5-17.5-5.1c-28.9,2.1-52.2,17.8-62.5,41.8
				c-5,11.8-6,23.6-3.1,32.4c-15,16.5-23.6,36.6-23.3,54.2c-15.1,9.9-26.5,27.6-26.5,50.9c0,27.3,20,50.7,45,69.4
				c-13,17-10.5,34.3-2.8,45.7c14.3,21.3,50.9,33.2,88.6,17.6c32.7,13.1,62.4,19.6,88.9,19.6c16.5,0,31.7-2.5,45.7-7.6
				c20.8,10.2,38.2,14.3,52.2,14.3c17.1,0,29-6.1,35.6-14.4c4.6-5.8,6.7-12.6,6.1-19.2c18-3.4,28.9-14.5,33.5-25.7
				c7.3-17.7,1.3-38.2-14.9-50.9c-12.2-9.6-22.5-17.1-28.1-21.2c0.3-5,0.3-9.7-0.1-14L367.1,216.7z M133.5,47.2
				c-0.4,3.1-0.4,6.9,1.6,10.8c1.5,3,1.9,7.2,0.7,9.8C113.9,70.7,97.3,78.7,85.4,87c0.4-2.8,1.3-6,2.8-9.4
				C91.7,69.3,103.2,49.9,133.5,47.2z M85,111.8c12.6-12.3,40.2-31.3,87.2-24.9c0.2,5.9,1.7,11.7,4.5,16.8c2.5,4.6,8.2,6.3,12.8,3.8
				c4.6-2.5,6.3-8.2,3.8-12.8c-3.1-5.7-3.5-15.5,2.6-24.5c5.1-7.5,18.1-19.2,49.5-17.4c-1.4,4.6-2.5,10.6-0.2,17.2
				c3.2,9.4,2.6,18.1-1.6,25c-3.7,6-10,10.3-16.5,11.2c-5.2,0.7-8.8,5.5-8.1,10.7c0.7,4.7,4.7,8.2,9.4,8.2c0.4,0,0.9,0,1.3-0.1
				c8.2-1.1,16-5,22.3-10.7c7.1,4,12,7.1,17.7,11.8c-4.7,18.9-4.7,35.7-1.8,43.9c1.4,3.9,5,6.3,8.9,6.3c1,0,2.1-0.2,3.1-0.5
				c4.9-1.7,7.5-7.1,5.8-12.1c-2.3-6.4-1.4-35.5,14-62.9c14.3-25.5,36-41.5,64.4-47.5c52.8-11.2,88.4,5.1,96.9,20.3
				c2.9,5.2,2.4,9.8-1.5,13.9c-7.1,7.4-52.5,17.9-96.3-3.5c-4.7-2.3-10.4-0.4-12.7,4.3c-2.3,4.7-0.3,10.4,4.3,12.7
				c26.9,13.1,55.8,16.4,78.8,14c-0.1,4.2-3.4,8.1-5.7,10.3c-14.2,13.9-54.8,26.2-103.6,0.4c-4.6-2.4-10.3-0.7-12.8,3.9
				c-2.4,4.6-0.7,10.3,3.9,12.8c20.9,11,41.5,16.3,60.3,17.1c-10.2,8.1-35.8,19.3-69.1,10.7c-5.1-1.3-10.2,1.7-11.5,6.8
				c-1.3,5.1,1.7,10.2,6.8,11.5c10.1,2.6,19.9,3.8,29.1,3.8c2.6,0,5.2-0.1,7.7-0.3c1.6,2.2,13,18.9,9.6,46.7l-0.7,5.7l4.7,3.2
				c0.1,0.1,14.1,9.8,31.7,23.7c9.5,7.5,13.2,19.1,9.1,28.9c-4.6,11.1-17.2,16.5-33.8,14.6c-19.1-2.2-34.2-9.5-34.3-9.6l-7.8-3.8
				l-4.5,7.4c-0.1,0.2-9.8,15.7-33.8,25c-32.5,12.6-76.3,8.3-126.6-12.5l-3.8-1.6l-3.8,1.7c-28.6,13.2-58.6,5.9-68.8-9.2
				c-6.1-9.1-2.7-17.8,2.7-24.4c9.6,6.1,19.4,11.5,28.9,16.2c1.4,0.7,2.8,1,4.2,1c3.5,0,6.8-1.9,8.5-5.2c2.3-4.7,0.4-10.4-4.2-12.7
				c-11.4-5.7-25.7-13.6-39-23.2c27.6-1.9,54.8-23.4,54.8-58.5c0-36-29.8-57.5-58.7-57.5c-3,0-6,0.3-9,0.9
				C66.1,137.6,72.6,123.9,85,111.8z M40.7,224.4c-2.4-5.5-3.8-11.1-3.8-16.9c0-17.6,9.1-30.5,20.5-36.7c0.8-0.3,1.6-0.7,2.3-1.1
				c4.3-2,8.9-3,13.4-3c19.3,0,39.7,13.5,39.7,38.6c0,25.8-20.5,39.7-39.7,39.7c-20.7,0-30.5-17.7-30.9-18.4
				C41.8,225.8,41.3,225,40.7,224.4z"/>
			<path class="st2" d="M181.9,245.9c-7,13.2-6.8,26.6,0.5,37.8c9.1,13.9,27.8,22,49.7,22c2.5,0,5-0.1,7.5-0.3
				c5.2-0.4,9.1-5,8.7-10.2c-0.4-5.2-5-9.1-10.2-8.7c-17.7,1.4-33.7-3.9-39.9-13.3c-3.5-5.3-3.4-11.5,0.4-18.6
				c2.9-5.5,8.1-8.8,15.7-10.2c17.1-3,39,5.4,44,9.9c3.9,3.5,9.9,3.2,13.4-0.7c3.5-3.9,3.2-9.9-0.7-13.4
				c-9.8-8.7-37.3-18.4-59.9-14.4C197.6,228.3,187.5,235.2,181.9,245.9z"/>
			<path class="st2" d="M164.5,124.5c0.1,0,7.5,1.7,13.3,10.1c1.3,1.9,3.4,2.9,5.5,2.9c1.3,0,2.6-0.4,3.7-1.2c3-2.1,3.8-6.2,1.7-9.2
				c-8.9-13-20.6-15.4-21.9-15.7c-3.6-0.6-7,1.8-7.7,5.4C158.5,120.4,160.9,123.8,164.5,124.5z"/>
			<circle class="st2" cx="157.1" cy="162.8" r="19"/>
			<ellipse class="st2" cx="56.5" cy="206.4" rx="10.7" ry="15.3"/>
			<ellipse class="st2" cx="85.6" cy="206.4" rx="10.7" ry="15.3"/>
			<path class="st2" d="M177.8,212.9c3.3,1.6,7.3,0.1,8.8-3.2c1.6-3.3,0.1-7.2-3.2-8.8c-18.8-8.8-31.5,0-35.6,5.8
				c-2.1,3-1.3,7.1,1.7,9.2c1.1,0.8,2.5,1.2,3.8,1.2c2,0,4-0.9,5.3-2.6c2.9,8.5,0.9,18-5.5,25.9c-7.8,9.7-20.2,15-31.6,13.5
				c-4.2-0.5-7.9,2.4-8.5,6.5c-0.5,4.1,2.4,7.9,6.5,8.5c1.9,0.2,3.8,0.4,5.7,0.4c14.8,0,29.8-7.2,39.6-19.4
				c9.4-11.6,12.4-25.6,8.6-38.7C174.8,211.6,176.2,212.1,177.8,212.9z"/>
			<path class="st2" d="M460.7,371.6c1.4-3.4-0.3-7.2-3.7-8.6l-50.2-20.1c-3.4-1.4-7.2,0.3-8.6,3.7c-1.4,3.4,0.3,7.2,3.7,8.6
				l50.2,20.1c0.8,0.3,1.6,0.5,2.5,0.5C457.1,375.7,459.6,374.2,460.7,371.6z"/>
			<path class="st2" d="M148.1,352.8c-3.4-1.4-7.2,0.2-8.6,3.6c-1.4,3.4,0.2,7.3,3.6,8.6l54,22c0.8,0.3,1.7,0.5,2.5,0.5
				c2.6,0,5.1-1.6,6.1-4.1c1.4-3.4-0.2-7.2-3.6-8.6L148.1,352.8z"/>
			<path class="st2" d="M441.2,238.7c-3.4-1.4-7.2,0.2-8.6,3.6c-1.4,3.4,0.2,7.3,3.6,8.6l40.8,16.7c0.8,0.3,1.7,0.5,2.5,0.5
				c2.6,0,5.1-1.6,6.1-4.1c1.4-3.4-0.2-7.2-3.6-8.6L441.2,238.7z"/>
			<path class="st2" d="M451.4,150.9c-1.4,3.4,0.1,7.3,3.5,8.7l32.8,14.1c0.9,0.4,1.7,0.5,2.6,0.5c2.6,0,5-1.5,6.1-4
				c1.4-3.4-0.1-7.3-3.5-8.7l-32.8-14.1C456.7,146,452.8,147.5,451.4,150.9z"/>
		</g>
	</g>
</g>
<g id="Layer_3">
</g>
<g id="Layer_2">
	<g>
		<g>
			<circle class="st0" cx="153.3" cy="161.7" r="8.1"/>
		</g>
	</g>
</g>
</svg>
